<svg width="17" height="17" viewBox="0 0 17 17" fill="none" xmlns="http://www.w3.org/2000/svg">
<g clip-path="url(#clip0_26_119)">
<path d="M13.7529 3.48219C14.74 4.85432 15.3214 6.53786 15.3214 8.35718C15.3214 10.1765 14.74 11.86 13.7529 13.2322M10.9654 5.57147C11.5162 6.36111 11.8392 7.32142 11.8392 8.35718C11.8392 9.39294 11.5162 10.3533 10.9654 11.1429M6.70956 3.04044L4.50489 5.24511C4.38445 5.36556 4.32422 5.42578 4.25394 5.46885C4.19163 5.50703 4.1237 5.53517 4.05264 5.55223C3.97249 5.57147 3.88732 5.57147 3.71698 5.57147H2.5071C2.11707 5.57147 1.92205 5.57147 1.77308 5.64738C1.64204 5.71415 1.5355 5.82069 1.46873 5.95173C1.39282 6.1007 1.39282 6.29572 1.39282 6.68576V10.0286C1.39282 10.4186 1.39282 10.6137 1.46873 10.7626C1.5355 10.8937 1.64204 11.0002 1.77308 11.067C1.92205 11.1429 2.11707 11.1429 2.5071 11.1429H3.71698C3.88732 11.1429 3.97249 11.1429 4.05264 11.1621C4.1237 11.1792 4.19163 11.2073 4.25394 11.2455C4.32422 11.2886 4.38445 11.3488 4.50489 11.4693L6.70956 13.6739C7.00789 13.9723 7.15706 14.1214 7.28513 14.1315C7.39625 14.1402 7.50484 14.0953 7.57723 14.0105C7.66066 13.9128 7.66066 13.7019 7.66066 13.28V3.4344C7.66066 3.01249 7.66066 2.80154 7.57723 2.70386C7.50484 2.6191 7.39625 2.57412 7.28513 2.58286C7.15706 2.59294 7.00789 2.74211 6.70956 3.04044Z" stroke="black" stroke-width="1.39285" stroke-linecap="round" stroke-linejoin="round"/>
</g>
<defs>
<clipPath id="clip0_26_119">
<rect width="16.7142" height="16.7142" fill="white"/>
</clipPath>
</defs>
</svg>
