<svg width="17" height="17" viewBox="0 0 17 17" fill="none" xmlns="http://www.w3.org/2000/svg">
<g clip-path="url(#clip0_26_122)">
<path d="M15.3214 6.26778L11.1428 10.4463M11.1428 6.26778L15.3214 10.4463M6.70956 3.04032L4.50489 5.24499C4.38445 5.36543 4.32422 5.42566 4.25394 5.46873C4.19163 5.50691 4.1237 5.53505 4.05264 5.55211C3.97249 5.57135 3.88732 5.57135 3.71698 5.57135H2.5071C2.11707 5.57135 1.92205 5.57135 1.77308 5.64726C1.64204 5.71403 1.5355 5.82057 1.46873 5.95161C1.39282 6.10058 1.39282 6.2956 1.39282 6.68563V10.0285C1.39282 10.4185 1.39282 10.6135 1.46873 10.7625C1.5355 10.8935 1.64204 11.0001 1.77308 11.0669C1.92205 11.1428 2.11707 11.1428 2.5071 11.1428H3.71698C3.88732 11.1428 3.97249 11.1428 4.05264 11.162C4.1237 11.1791 4.19163 11.2072 4.25394 11.2454C4.32422 11.2885 4.38445 11.3487 4.50489 11.4691L6.70956 13.6738C7.00789 13.9721 7.15706 14.1213 7.28513 14.1314C7.39625 14.1401 7.50484 14.0951 7.57723 14.0104C7.66066 13.9127 7.66066 13.7017 7.66066 13.2798V3.43428C7.66066 3.01237 7.66066 2.80142 7.57723 2.70373C7.50484 2.61898 7.39625 2.57399 7.28513 2.58274C7.15706 2.59282 7.00789 2.74199 6.70956 3.04032Z" stroke="black" stroke-width="1.39285" stroke-linecap="round" stroke-linejoin="round"/>
</g>
<defs>
<clipPath id="clip0_26_122">
<rect width="16.7142" height="16.7142" fill="white"/>
</clipPath>
</defs>
</svg>
